<svg width="241" height="40" viewBox="0 0 241 40" fill="none" xmlns="http://www.w3.org/2000/svg">
<path d="M69.0678 31.5258L68.4865 34.8668C68.4525 35.0594 68.3578 35.2357 68.2165 35.3692C68.0753 35.5029 67.8951 35.5866 67.7028 35.6079L38.3395 38.8055C35.9568 39.0655 33.5534 39.0655 31.1707 38.8055L1.54914 35.6032C1.36246 35.5833 1.18671 35.5044 1.04687 35.3778C0.907027 35.2511 0.810211 35.083 0.770178 34.8973L0.00284052 31.5305C-0.0021022 31.5141 -0.000552478 31.4964 0.00716206 31.4812C0.0148767 31.4658 0.0281518 31.4543 0.0441719 31.4488C0.0601921 31.4434 0.0777009 31.4443 0.0929899 31.4517C0.108279 31.459 0.120145 31.4721 0.126079 31.4881L1.37242 34.3468C1.37757 34.3585 1.3861 34.3684 1.39688 34.3751C1.40767 34.3819 1.42022 34.3851 1.43288 34.3845H29.3663C29.9711 35.2634 30.7771 35.9814 31.7153 36.4772C32.6537 36.973 33.6966 37.232 34.755 37.232C35.8136 37.232 36.8565 36.973 37.7947 36.4772C38.7331 35.9814 39.539 35.2634 40.1439 34.3845H67.7889C67.8025 34.3849 67.8157 34.381 67.8269 34.3734C67.8383 34.3659 67.8469 34.3548 67.8517 34.3421L68.9515 31.4904C68.9596 31.48 68.9706 31.4722 68.9831 31.4682C68.9956 31.4642 69.009 31.464 69.0216 31.4678C69.0341 31.4717 69.0453 31.4792 69.0536 31.4895C69.0618 31.4999 69.0667 31.5125 69.0678 31.5258Z" fill="#051B31"/>
<path d="M48.5127 28.6662C48.4902 27.8217 48.1428 27.0195 47.5446 26.4303C46.9463 25.841 46.1445 25.5113 45.3096 25.5113C44.4747 25.5113 43.6729 25.841 43.0746 26.4303C42.4764 27.0195 42.129 27.8217 42.1066 28.6662C42.1066 28.7674 42.1066 28.8662 42.1229 28.9627H41.123C40.8025 27.686 40.1141 26.5346 39.1452 25.6547C38.1763 24.7749 36.9709 24.2065 35.6818 24.0217L35.3657 18.4853L43.8575 18.0147C43.99 18.0147 44.09 17.9253 44.09 17.8265C44.09 17.7277 43.9761 17.6406 43.8365 17.6406H35.3169L35.2285 16.0831C35.2272 15.9432 35.1742 15.8089 35.08 15.7066C34.9857 15.6043 34.857 15.5412 34.7193 15.5302C34.6546 15.531 34.5908 15.5453 34.5319 15.5724C34.473 15.5996 34.4204 15.6389 34.3774 15.6877C34.2799 15.7969 34.2217 15.9362 34.2123 16.0831L34.124 17.6406H25.6368C25.4972 17.6406 25.3833 17.7254 25.3833 17.8265C25.3833 17.9276 25.4856 18.0077 25.6158 18.0147L34.0728 18.4853V18.5583L33.7612 24.0357C32.4865 24.2356 31.2981 24.8108 30.3441 25.6894C29.3903 26.5681 28.7129 27.7113 28.3968 28.9767H27.3784C27.3784 28.8803 27.3923 28.7815 27.3923 28.6803C27.3939 27.884 27.1062 27.1149 26.584 26.5191C26.0617 25.9234 25.3414 25.5427 24.5598 25.4492C23.7782 25.3558 22.99 25.5563 22.345 26.0126C21.7 26.4688 21.2431 27.1489 21.0614 27.9237C20.8795 28.6985 20.9856 29.514 21.3591 30.2149C21.7326 30.9158 22.3477 31.4534 23.0873 31.7255C23.827 31.9974 24.6397 31.9849 25.3708 31.6904C26.1019 31.3956 26.7005 30.8394 27.0529 30.1274L28.1969 30.692C28.2054 31.3743 28.3176 32.0512 28.5294 32.699H5.93945C5.93945 24.9612 8.97723 17.5402 14.3845 12.0688C19.7918 6.59729 27.1257 3.52344 34.7727 3.52344C42.4198 3.52344 49.7537 6.59729 55.161 12.0688C60.5681 17.5402 63.606 24.9612 63.606 32.699H40.9904C41.2045 32.0485 41.3167 31.3682 41.3229 30.6826L42.4484 30.1297C42.7714 30.7817 43.3023 31.3044 43.9554 31.6131C44.6085 31.9219 45.3453 31.9986 46.0468 31.831C46.7483 31.6633 47.3734 31.2611 47.8209 30.6892C48.2684 30.1175 48.5121 29.4096 48.5127 28.6803V28.6662Z" fill="#051B31"/>
<path d="M67.3359 32.6876H65.2432C65.1501 24.5649 61.8983 16.8064 56.192 11.0927C50.4857 5.37895 42.7844 2.17017 34.7566 2.16142C18.0519 2.16142 4.44449 15.8245 4.27242 32.6876H2.17969C2.25227 23.9929 5.71659 15.6794 11.8183 9.55728C17.9199 3.43508 26.1648 0 34.7577 0C43.3506 0 51.5956 3.43508 57.6973 9.55728C63.799 15.6794 67.2633 23.9929 67.3359 32.6876Z" fill="#051B31"/>
<path d="M78.8958 37.0492V29.3402H75.9961V28.1182H83.1101V29.3402H80.1975V37.0492H78.8958ZM96.5109 29.3402H91.3171V31.8882H96.0082V33.1102H91.3171V35.8272H96.5109V37.0492H90.0026V28.1182H96.5109V29.3402ZM107.811 37.2052C105.324 37.2052 103.21 35.0862 103.21 32.5772C103.21 30.0682 105.324 27.9622 107.811 27.9622C109.074 27.9622 110.234 28.4952 111.072 29.3662L110.157 30.2502C109.564 29.6002 108.726 29.1712 107.811 29.1712C106.046 29.1712 104.551 30.7312 104.551 32.5772C104.551 34.4362 106.046 35.9962 107.811 35.9962C108.726 35.9962 109.564 35.5672 110.157 34.9172L111.072 35.8012C110.234 36.6592 109.074 37.2052 107.811 37.2052ZM123.928 28.1182H125.23V37.0492H123.928V33.1102H119.095V37.0492H117.794V28.1182H119.095V31.8882H123.928V28.1182ZM132.725 37.0492V28.1182H134.027L139.118 34.8912V28.1182H140.419V37.0492H139.118L134.027 30.2762V37.0492H132.725ZM152.178 37.2052C149.691 37.2052 147.577 35.0862 147.577 32.5772C147.577 30.0682 149.691 27.9622 152.178 27.9622C154.665 27.9622 156.753 30.0682 156.753 32.5772C156.753 35.0862 154.665 37.2052 152.178 37.2052ZM152.178 35.9962C153.944 35.9962 155.426 34.4362 155.426 32.5772C155.426 30.7312 153.944 29.1712 152.178 29.1712C150.413 29.1712 148.918 30.7312 148.918 32.5772C148.918 34.4362 150.413 35.9962 152.178 35.9962ZM164.958 35.8272H169.649V37.0492H163.643V28.1182H164.958V35.8272ZM180.687 37.2052C178.2 37.2052 176.086 35.0862 176.086 32.5772C176.086 30.0682 178.2 27.9622 180.687 27.9622C183.174 27.9622 185.262 30.0682 185.262 32.5772C185.262 35.0862 183.174 37.2052 180.687 37.2052ZM180.687 35.9962C182.453 35.9962 183.935 34.4362 183.935 32.5772C183.935 30.7312 182.453 29.1712 180.687 29.1712C178.921 29.1712 177.426 30.7312 177.426 32.5772C177.426 34.4362 178.921 35.9962 180.687 35.9962ZM196.353 33.3832V32.2392H200.013V35.8012C199.176 36.6592 197.784 37.2052 196.534 37.2052C194.046 37.2052 191.92 35.0862 191.92 32.5772C191.92 30.0682 194.046 27.9622 196.534 27.9622C197.784 27.9622 199.176 28.4952 200.013 29.3662L199.098 30.2502C198.493 29.5872 197.449 29.1712 196.534 29.1712C194.755 29.1712 193.26 30.7312 193.26 32.5772C193.26 34.4362 194.755 35.9962 196.534 35.9962C197.281 35.9962 198.119 35.7232 198.725 35.2552V33.3832H196.353ZM207.283 37.0492V28.1182H208.585V37.0492H207.283ZM222.452 29.3402H217.258V31.8882H221.95V33.1102H217.258V35.8272H222.452V37.0492H215.944V28.1182H222.452V29.3402ZM232.67 37.1922C231.187 37.1922 229.963 36.6722 229.022 35.7622L229.808 34.7872C230.595 35.5412 231.523 36.0352 232.721 36.0352C233.945 36.0352 234.577 35.3852 234.577 34.6702C234.577 33.8252 233.842 33.5002 232.36 33.1622C230.556 32.7332 229.357 32.1872 229.357 30.5752C229.357 29.0802 230.646 27.9492 232.425 27.9492C233.791 27.9492 234.809 28.4562 235.659 29.2102L234.912 30.1982C234.165 29.5092 233.275 29.1062 232.373 29.1062C231.381 29.1062 230.685 29.7432 230.685 30.4582C230.685 31.2902 231.445 31.5762 232.902 31.9272C234.667 32.3432 235.891 32.9412 235.891 34.5402C235.891 36.0482 234.757 37.1922 232.67 37.1922Z" fill="#051B31"/>
<path d="M75.9961 16.2505V1.96094H83.172C85.7083 1.96094 87.461 3.45854 87.461 5.53854C87.461 6.99454 86.7393 8.05534 85.4814 8.72094C87.1311 9.46974 88.0796 10.8009 88.0796 12.3817C88.0796 14.6697 86.1413 16.2505 83.44 16.2505H75.9961ZM79.0273 7.72254H82.409C83.5431 7.72254 84.3473 7.05694 84.3473 6.14174C84.3473 5.24734 83.5431 4.58174 82.409 4.58174H79.0273V7.72254ZM79.0273 13.6297H82.8833C84.0999 13.6297 84.9659 12.9017 84.9659 11.8825C84.9659 10.8633 84.0999 10.1353 82.8833 10.1353H79.0273V13.6297ZM102.539 16.2505L101.632 14.0041H95.3218L94.4145 16.2505H91.0122L96.7859 1.96094H100.188L105.962 16.2505H102.539ZM96.3735 11.4041H100.58L98.4768 6.18334L96.3735 11.4041ZM121.468 16.2505H118.004L114.766 11.6121H112.519V16.2505H109.487V1.96094H115.859C118.932 1.96094 121.2 3.95774 121.2 6.78654C121.2 8.90814 119.921 10.5721 117.983 11.2585L121.468 16.2505ZM112.519 4.76894V8.80414H115.529C117.035 8.80414 118.066 8.01374 118.066 6.78654C118.066 5.55934 117.035 4.76894 115.529 4.76894H112.519ZM137.299 16.2505H133.835L130.598 11.6121H128.35V16.2505H125.318V1.96094H131.691C134.763 1.96094 137.031 3.95774 137.031 6.78654C137.031 8.90814 135.753 10.5721 133.814 11.2585L137.299 16.2505ZM128.35 4.76894V8.80414H131.361C132.866 8.80414 133.897 8.01374 133.897 6.78654C133.897 5.55934 132.866 4.76894 131.361 4.76894H128.35ZM152.057 4.72734H144.201V7.57694H151.315V10.3433H144.201V13.4841H152.057V16.2505H141.149V1.96094H152.057V4.72734ZM159.163 13.4841H166.215V16.2505H156.111V1.96094H159.163V13.4841ZM188.555 4.72734H180.699V7.82654H187.813V10.5929H180.699V16.2505H177.647V1.96094H188.555V4.72734ZM198.964 16.5001C195.191 16.5001 192.551 13.8377 192.551 10.0729V1.96094H195.583V9.94814C195.583 12.1529 196.985 13.7129 198.964 13.7129C200.923 13.7129 202.325 12.1529 202.325 9.94814V1.96094H205.377V10.0729C205.377 13.8377 202.717 16.5001 198.964 16.5001ZM220.902 4.72734H213.045V7.57694H220.159V10.3433H213.045V13.4841H220.902V16.2505H209.994V1.96094H220.902V4.72734ZM228.008 13.4841H235.06V16.2505H224.956V1.96094H228.008V13.4841Z" fill="#051B31"/>
<path d="M236.681 1.95142C236.065 1.9982 235.502 2.25042 235.064 2.67756C234.631 3.0986 234.374 3.61829 234.29 4.24374C234.271 4.38511 234.274 4.73902 234.296 4.88955C234.363 5.36753 234.534 5.77738 234.824 6.15571C234.905 6.26149 235.136 6.49743 235.239 6.57879C235.444 6.74049 235.738 6.90932 235.954 6.98864C236.901 7.33239 237.923 7.11577 238.64 6.42014C239.26 5.81807 239.537 4.96276 239.391 4.09933C239.335 3.76271 239.193 3.40471 239.001 3.11486C238.583 2.48127 237.945 2.07854 237.194 1.97073C237.087 1.95548 236.782 1.94429 236.681 1.95142ZM237.111 2.49957C237.569 2.5606 237.974 2.76095 238.298 3.08945C238.686 3.47997 238.899 3.99661 238.899 4.54884C238.899 5.10108 238.686 5.61772 238.298 6.00825C237.627 6.68659 236.591 6.80863 235.776 6.30725C235.521 6.14961 235.265 5.89129 235.109 5.63399C234.611 4.81225 234.732 3.76677 235.405 3.08945C235.725 2.76603 236.133 2.56162 236.584 2.5006C236.724 2.48127 236.967 2.48127 237.111 2.49957Z" fill="#051B31"/>
<path d="M236.71 3.21411C236.702 3.21615 236.661 3.22326 236.62 3.22937C236.456 3.25582 236.258 3.33717 236.101 3.44091C236.005 3.50396 235.809 3.7033 235.744 3.80397C235.649 3.95043 235.581 4.11417 235.544 4.29011C235.519 4.40707 235.519 4.69589 235.544 4.81285C235.66 5.35593 236.053 5.75358 236.593 5.87053C236.709 5.89596 236.995 5.89596 237.111 5.87053C237.46 5.79527 237.766 5.59086 237.951 5.31118C238.023 5.20236 238.008 5.181 237.778 5.06405C237.58 4.96539 237.559 4.96134 237.513 5.01625C237.362 5.19422 237.257 5.27152 237.09 5.32339C236.709 5.44136 236.294 5.2583 236.126 4.89625C236.032 4.69182 236.026 4.44876 236.112 4.24435C236.211 4.00534 236.423 3.82432 236.678 3.76127C236.786 3.73483 236.956 3.73991 237.066 3.77245C237.217 3.81719 237.303 3.86906 237.428 3.98908C237.47 4.02976 237.516 4.06331 237.525 4.06331C237.557 4.06331 237.906 3.88433 237.924 3.8589C237.964 3.79992 237.928 3.73584 237.764 3.57719C237.585 3.40327 237.373 3.29141 237.119 3.23446C237.054 3.22022 236.749 3.20395 236.71 3.21411Z" fill="#051B31"/>
</svg>
