<?xml version="1.0" encoding="UTF-8"?>
<svg xmlns="http://www.w3.org/2000/svg" xmlns:xlink="http://www.w3.org/1999/xlink" width="187px" height="30px" viewBox="0 0 186 30" version="1.1">
<g id="surface1">
<path style=" stroke:none;fill-rule:nonzero;fill:rgb(100%,100%,100%);fill-opacity:1;" d="M 53.304688 24.25 L 52.855469 26.820312 C 52.832031 26.96875 52.757812 27.101562 52.648438 27.207031 C 52.539062 27.308594 52.402344 27.375 52.253906 27.390625 L 29.589844 29.847656 C 27.75 30.050781 25.894531 30.050781 24.058594 29.847656 L 1.195312 27.386719 C 1.050781 27.371094 0.914062 27.308594 0.808594 27.210938 C 0.699219 27.113281 0.625 26.984375 0.59375 26.84375 L 0.00390625 24.253906 C 0 24.242188 0 24.226562 0.00390625 24.214844 C 0.0117188 24.203125 0.0234375 24.195312 0.0351562 24.191406 C 0.046875 24.1875 0.0585938 24.1875 0.0703125 24.191406 C 0.0820312 24.199219 0.09375 24.207031 0.0976562 24.21875 L 1.058594 26.417969 C 1.0625 26.429688 1.070312 26.4375 1.078125 26.441406 C 1.085938 26.445312 1.097656 26.449219 1.105469 26.449219 L 22.664062 26.449219 C 23.132812 27.125 23.753906 27.675781 24.476562 28.058594 C 25.203125 28.441406 26.007812 28.640625 26.824219 28.640625 C 27.640625 28.640625 28.445312 28.441406 29.167969 28.058594 C 29.894531 27.675781 30.515625 27.125 30.980469 26.449219 L 52.320312 26.449219 C 52.328125 26.449219 52.339844 26.445312 52.347656 26.441406 C 52.355469 26.433594 52.363281 26.425781 52.367188 26.414062 L 53.214844 24.222656 C 53.222656 24.214844 53.230469 24.207031 53.238281 24.207031 C 53.25 24.203125 53.261719 24.203125 53.269531 24.203125 C 53.28125 24.207031 53.289062 24.214844 53.292969 24.222656 C 53.300781 24.230469 53.304688 24.238281 53.304688 24.25 Z M 53.304688 24.25 "/>
<path style=" stroke:none;fill-rule:nonzero;fill:rgb(100%,100%,100%);fill-opacity:1;" d="M 37.441406 22.050781 C 37.425781 21.402344 37.15625 20.785156 36.695312 20.332031 C 36.234375 19.878906 35.613281 19.625 34.96875 19.625 C 34.324219 19.625 33.707031 19.878906 33.246094 20.332031 C 32.785156 20.785156 32.515625 21.402344 32.496094 22.050781 C 32.496094 22.128906 32.496094 22.207031 32.511719 22.28125 L 31.738281 22.28125 C 31.492188 21.296875 30.960938 20.410156 30.210938 19.734375 C 29.464844 19.058594 28.535156 18.621094 27.539062 18.480469 L 27.296875 14.21875 L 33.847656 13.859375 C 33.953125 13.859375 34.027344 13.789062 34.027344 13.714844 C 34.027344 13.636719 33.941406 13.570312 33.832031 13.570312 L 27.257812 13.570312 L 27.1875 12.371094 C 27.1875 12.265625 27.148438 12.160156 27.074219 12.082031 C 27.003906 12.003906 26.902344 11.957031 26.796875 11.945312 C 26.746094 11.949219 26.695312 11.957031 26.652344 11.980469 C 26.605469 12 26.566406 12.03125 26.53125 12.066406 C 26.457031 12.152344 26.414062 12.257812 26.40625 12.371094 L 26.335938 13.570312 L 19.785156 13.570312 C 19.679688 13.570312 19.589844 13.636719 19.589844 13.714844 C 19.589844 13.792969 19.671875 13.851562 19.769531 13.859375 L 26.296875 14.21875 L 26.296875 14.277344 L 26.058594 18.488281 C 25.074219 18.644531 24.15625 19.085938 23.417969 19.761719 C 22.683594 20.4375 22.160156 21.316406 21.917969 22.289062 L 21.128906 22.289062 C 21.128906 22.214844 21.140625 22.140625 21.140625 22.0625 C 21.144531 21.449219 20.921875 20.859375 20.519531 20.398438 C 20.113281 19.941406 19.558594 19.648438 18.957031 19.578125 C 18.351562 19.503906 17.742188 19.660156 17.246094 20.011719 C 16.75 20.359375 16.394531 20.882812 16.253906 21.480469 C 16.113281 22.078125 16.195312 22.703125 16.484375 23.242188 C 16.773438 23.78125 17.25 24.195312 17.820312 24.40625 C 18.390625 24.613281 19.015625 24.605469 19.582031 24.378906 C 20.144531 24.152344 20.609375 23.722656 20.878906 23.175781 L 21.761719 23.609375 C 21.769531 24.132812 21.855469 24.65625 22.019531 25.152344 L 4.585938 25.152344 C 4.585938 19.203125 6.929688 13.492188 11.101562 9.285156 C 15.277344 5.074219 20.9375 2.710938 26.835938 2.710938 C 32.738281 2.710938 38.398438 5.074219 42.574219 9.285156 C 46.746094 13.492188 49.089844 19.203125 49.089844 25.152344 L 31.636719 25.152344 C 31.800781 24.652344 31.886719 24.128906 31.894531 23.601562 L 32.761719 23.175781 C 33.011719 23.679688 33.421875 24.082031 33.925781 24.316406 C 34.429688 24.554688 34.996094 24.613281 35.539062 24.484375 C 36.082031 24.355469 36.5625 24.046875 36.90625 23.609375 C 37.253906 23.167969 37.441406 22.625 37.441406 22.0625 Z M 37.441406 22.050781 "/>
<path style=" stroke:none;fill-rule:nonzero;fill:rgb(100%,100%,100%);fill-opacity:1;" d="M 51.96875 25.144531 L 50.355469 25.144531 C 50.28125 18.894531 47.773438 12.929688 43.367188 8.53125 C 38.964844 4.136719 33.019531 1.667969 26.824219 1.664062 C 13.933594 1.664062 3.429688 12.171875 3.296875 25.144531 L 1.683594 25.144531 C 1.738281 18.457031 4.410156 12.0625 9.121094 7.351562 C 13.832031 2.640625 20.195312 0 26.824219 0 C 33.457031 0 39.820312 2.640625 44.53125 7.351562 C 49.238281 12.0625 51.914062 18.457031 51.96875 25.144531 Z M 51.96875 25.144531 "/>
<path style=" stroke:none;fill-rule:nonzero;fill:rgb(100%,100%,100%);fill-opacity:1;" d="M 60.890625 28.5 L 60.890625 22.570312 L 58.652344 22.570312 L 58.652344 21.628906 L 64.140625 21.628906 L 64.140625 22.570312 L 61.894531 22.570312 L 61.894531 28.5 Z M 74.484375 22.570312 L 70.476562 22.570312 L 70.476562 24.53125 L 74.097656 24.53125 L 74.097656 25.46875 L 70.476562 25.46875 L 70.476562 27.558594 L 74.484375 27.558594 L 74.484375 28.5 L 69.460938 28.5 L 69.460938 21.628906 L 74.484375 21.628906 Z M 83.207031 28.621094 C 81.285156 28.621094 79.65625 26.988281 79.65625 25.058594 C 79.65625 23.128906 81.285156 21.511719 83.207031 21.511719 C 84.179688 21.511719 85.078125 21.921875 85.722656 22.589844 L 85.015625 23.269531 C 84.558594 22.769531 83.914062 22.441406 83.207031 22.441406 C 81.84375 22.441406 80.691406 23.640625 80.691406 25.058594 C 80.691406 26.488281 81.84375 27.691406 83.207031 27.691406 C 83.914062 27.691406 84.558594 27.359375 85.015625 26.859375 L 85.722656 27.539062 C 85.078125 28.199219 84.179688 28.621094 83.207031 28.621094 Z M 95.644531 21.628906 L 96.648438 21.628906 L 96.648438 28.5 L 95.644531 28.5 L 95.644531 25.46875 L 91.914062 25.46875 L 91.914062 28.5 L 90.910156 28.5 L 90.910156 21.628906 L 91.914062 21.628906 L 91.914062 24.53125 L 95.644531 24.53125 Z M 102.433594 28.5 L 102.433594 21.628906 L 103.4375 21.628906 L 107.367188 26.839844 L 107.367188 21.628906 L 108.371094 21.628906 L 108.371094 28.5 L 107.367188 28.5 L 103.4375 23.289062 L 103.4375 28.5 Z M 117.449219 28.621094 C 115.527344 28.621094 113.898438 26.988281 113.898438 25.058594 C 113.898438 23.128906 115.527344 21.511719 117.449219 21.511719 C 119.367188 21.511719 120.980469 23.128906 120.980469 25.058594 C 120.980469 26.988281 119.367188 28.621094 117.449219 28.621094 Z M 117.449219 27.691406 C 118.8125 27.691406 119.953125 26.488281 119.953125 25.058594 C 119.953125 23.640625 118.8125 22.441406 117.449219 22.441406 C 116.085938 22.441406 114.929688 23.640625 114.929688 25.058594 C 114.929688 26.488281 116.085938 27.691406 117.449219 27.691406 Z M 127.3125 27.558594 L 130.929688 27.558594 L 130.929688 28.5 L 126.296875 28.5 L 126.296875 21.628906 L 127.3125 21.628906 Z M 139.449219 28.621094 C 137.53125 28.621094 135.898438 26.988281 135.898438 25.058594 C 135.898438 23.128906 137.53125 21.511719 139.449219 21.511719 C 141.371094 21.511719 142.980469 23.128906 142.980469 25.058594 C 142.980469 26.988281 141.371094 28.621094 139.449219 28.621094 Z M 139.449219 27.691406 C 140.8125 27.691406 141.957031 26.488281 141.957031 25.058594 C 141.957031 23.640625 140.8125 22.441406 139.449219 22.441406 C 138.085938 22.441406 136.933594 23.640625 136.933594 25.058594 C 136.933594 26.488281 138.085938 27.691406 139.449219 27.691406 Z M 151.542969 25.679688 L 151.542969 24.800781 L 154.367188 24.800781 L 154.367188 27.539062 C 153.71875 28.199219 152.644531 28.621094 151.679688 28.621094 C 149.761719 28.621094 148.121094 26.988281 148.121094 25.058594 C 148.121094 23.128906 149.761719 21.511719 151.679688 21.511719 C 152.644531 21.511719 153.71875 21.921875 154.367188 22.589844 L 153.660156 23.269531 C 153.191406 22.761719 152.386719 22.441406 151.679688 22.441406 C 150.308594 22.441406 149.15625 23.640625 149.15625 25.058594 C 149.15625 26.488281 150.308594 27.691406 151.679688 27.691406 C 152.257812 27.691406 152.90625 27.480469 153.371094 27.121094 L 153.371094 25.679688 Z M 159.976562 28.5 L 159.976562 21.628906 L 160.980469 21.628906 L 160.980469 28.5 Z M 171.683594 22.570312 L 167.675781 22.570312 L 167.675781 24.53125 L 171.296875 24.53125 L 171.296875 25.46875 L 167.675781 25.46875 L 167.675781 27.558594 L 171.683594 27.558594 L 171.683594 28.5 L 166.660156 28.5 L 166.660156 21.628906 L 171.683594 21.628906 Z M 179.570312 28.609375 C 178.425781 28.609375 177.480469 28.210938 176.753906 27.511719 L 177.363281 26.761719 C 177.96875 27.339844 178.683594 27.71875 179.609375 27.71875 C 180.554688 27.71875 181.042969 27.21875 181.042969 26.671875 C 181.042969 26.019531 180.476562 25.769531 179.332031 25.511719 C 177.9375 25.179688 177.015625 24.761719 177.015625 23.519531 C 177.015625 22.371094 178.007812 21.5 179.382812 21.5 C 180.433594 21.5 181.222656 21.890625 181.878906 22.46875 L 181.300781 23.230469 C 180.722656 22.699219 180.039062 22.390625 179.339844 22.390625 C 178.574219 22.390625 178.039062 22.878906 178.039062 23.429688 C 178.039062 24.070312 178.625 24.289062 179.75 24.558594 C 181.113281 24.878906 182.058594 25.339844 182.058594 26.570312 C 182.058594 27.730469 181.179688 28.609375 179.570312 28.609375 Z M 179.570312 28.609375 "/>
<path style=" stroke:none;fill-rule:nonzero;fill:rgb(100%,100%,100%);fill-opacity:1;" d="M 58.652344 12.5 L 58.652344 1.507812 L 64.191406 1.507812 C 66.148438 1.507812 67.5 2.660156 67.5 4.261719 C 67.5 5.378906 66.945312 6.195312 65.972656 6.707031 C 67.246094 7.285156 67.976562 8.308594 67.976562 9.523438 C 67.976562 11.285156 66.480469 12.5 64.398438 12.5 Z M 60.992188 5.941406 L 63.601562 5.941406 C 64.476562 5.941406 65.097656 5.429688 65.097656 4.722656 C 65.097656 4.035156 64.476562 3.523438 63.601562 3.523438 L 60.992188 3.523438 Z M 60.992188 10.484375 L 63.96875 10.484375 C 64.90625 10.484375 65.574219 9.925781 65.574219 9.140625 C 65.574219 8.355469 64.90625 7.796875 63.96875 7.796875 L 60.992188 7.796875 Z M 79.136719 12.5 L 78.4375 10.773438 L 73.566406 10.773438 L 72.867188 12.5 L 70.242188 12.5 L 74.695312 1.507812 L 77.324219 1.507812 L 81.777344 12.5 Z M 74.378906 8.773438 L 77.625 8.773438 L 76.003906 4.757812 Z M 93.746094 12.5 L 91.074219 12.5 L 88.574219 8.933594 L 86.839844 8.933594 L 86.839844 12.5 L 84.5 12.5 L 84.5 1.507812 L 89.417969 1.507812 C 91.789062 1.507812 93.539062 3.042969 93.539062 5.21875 C 93.539062 6.851562 92.554688 8.132812 91.058594 8.660156 Z M 86.839844 3.667969 L 86.839844 6.773438 L 89.164062 6.773438 C 90.324219 6.773438 91.121094 6.164062 91.121094 5.21875 C 91.121094 4.277344 90.324219 3.667969 89.164062 3.667969 Z M 105.964844 12.5 L 103.292969 12.5 L 100.792969 8.933594 L 99.058594 8.933594 L 99.058594 12.5 L 96.71875 12.5 L 96.71875 1.507812 L 101.636719 1.507812 C 104.007812 1.507812 105.757812 3.042969 105.757812 5.21875 C 105.757812 6.851562 104.769531 8.132812 103.273438 8.660156 Z M 99.058594 3.667969 L 99.058594 6.773438 L 101.382812 6.773438 C 102.542969 6.773438 103.339844 6.164062 103.339844 5.21875 C 103.339844 4.277344 102.542969 3.667969 101.382812 3.667969 Z M 117.355469 3.636719 L 111.292969 3.636719 L 111.292969 5.828125 L 116.78125 5.828125 L 116.78125 7.957031 L 111.292969 7.957031 L 111.292969 10.371094 L 117.355469 10.371094 L 117.355469 12.5 L 108.9375 12.5 L 108.9375 1.507812 L 117.355469 1.507812 Z M 122.839844 10.371094 L 128.28125 10.371094 L 128.28125 12.5 L 120.484375 12.5 L 120.484375 1.507812 L 122.839844 1.507812 Z M 145.523438 3.636719 L 139.460938 3.636719 L 139.460938 6.019531 L 144.949219 6.019531 L 144.949219 8.148438 L 139.460938 8.148438 L 139.460938 12.5 L 137.105469 12.5 L 137.105469 1.507812 L 145.523438 1.507812 Z M 153.554688 12.691406 C 150.644531 12.691406 148.609375 10.644531 148.609375 7.75 L 148.609375 1.507812 L 150.945312 1.507812 L 150.945312 7.652344 C 150.945312 9.347656 152.027344 10.546875 153.554688 10.546875 C 155.066406 10.546875 156.152344 9.347656 156.152344 7.652344 L 156.152344 1.507812 L 158.507812 1.507812 L 158.507812 7.75 C 158.507812 10.644531 156.453125 12.691406 153.554688 12.691406 Z M 170.488281 3.636719 L 164.425781 3.636719 L 164.425781 5.828125 L 169.914062 5.828125 L 169.914062 7.957031 L 164.425781 7.957031 L 164.425781 10.371094 L 170.488281 10.371094 L 170.488281 12.5 L 162.070312 12.5 L 162.070312 1.507812 L 170.488281 1.507812 Z M 175.972656 10.371094 L 181.414062 10.371094 L 181.414062 12.5 L 173.617188 12.5 L 173.617188 1.507812 L 175.972656 1.507812 Z M 175.972656 10.371094 "/>
<path style=" stroke:none;fill-rule:nonzero;fill:rgb(100%,100%,100%);fill-opacity:1;" d="M 182.667969 1.5 C 182.191406 1.539062 181.757812 1.730469 181.417969 2.058594 C 181.082031 2.382812 180.886719 2.785156 180.820312 3.265625 C 180.808594 3.375 180.808594 3.644531 180.824219 3.761719 C 180.878906 4.128906 181.007812 4.445312 181.234375 4.734375 C 181.296875 4.816406 181.472656 5 181.554688 5.0625 C 181.710938 5.1875 181.9375 5.316406 182.105469 5.375 C 182.835938 5.640625 183.625 5.472656 184.179688 4.9375 C 184.65625 4.476562 184.871094 3.816406 184.757812 3.152344 C 184.714844 2.894531 184.605469 2.621094 184.457031 2.398438 C 184.136719 1.910156 183.644531 1.597656 183.0625 1.515625 C 182.980469 1.503906 182.742188 1.496094 182.667969 1.5 Z M 183 1.921875 C 183.351562 1.96875 183.664062 2.125 183.914062 2.378906 C 184.214844 2.675781 184.378906 3.074219 184.378906 3.5 C 184.378906 3.925781 184.214844 4.320312 183.914062 4.621094 C 183.394531 5.144531 182.597656 5.238281 181.96875 4.851562 C 181.773438 4.730469 181.574219 4.53125 181.453125 4.335938 C 181.070312 3.703125 181.164062 2.898438 181.683594 2.378906 C 181.929688 2.128906 182.242188 1.972656 182.59375 1.925781 C 182.699219 1.910156 182.886719 1.910156 183 1.921875 Z M 183 1.921875 "/>
<path style=" stroke:none;fill-rule:nonzero;fill:rgb(100%,100%,100%);fill-opacity:1;" d="M 182.6875 2.472656 C 182.683594 2.476562 182.652344 2.480469 182.621094 2.484375 C 182.492188 2.503906 182.339844 2.566406 182.21875 2.648438 C 182.144531 2.695312 181.996094 2.847656 181.945312 2.925781 C 181.871094 3.039062 181.820312 3.164062 181.789062 3.300781 C 181.769531 3.390625 181.769531 3.613281 181.789062 3.703125 C 181.878906 4.121094 182.183594 4.425781 182.597656 4.515625 C 182.6875 4.535156 182.910156 4.535156 183 4.515625 C 183.269531 4.457031 183.503906 4.300781 183.648438 4.085938 C 183.703125 4.003906 183.691406 3.984375 183.515625 3.894531 C 183.359375 3.820312 183.34375 3.816406 183.308594 3.859375 C 183.191406 3.996094 183.109375 4.054688 182.984375 4.09375 C 182.6875 4.1875 182.367188 4.046875 182.238281 3.765625 C 182.164062 3.609375 182.160156 3.421875 182.226562 3.265625 C 182.304688 3.082031 182.46875 2.941406 182.664062 2.894531 C 182.75 2.875 182.878906 2.878906 182.964844 2.902344 C 183.082031 2.9375 183.148438 2.976562 183.242188 3.070312 C 183.277344 3.101562 183.3125 3.125 183.316406 3.125 C 183.34375 3.125 183.613281 2.988281 183.625 2.96875 C 183.65625 2.921875 183.628906 2.875 183.503906 2.753906 C 183.363281 2.617188 183.203125 2.53125 183.003906 2.488281 C 182.957031 2.476562 182.71875 2.464844 182.6875 2.472656 Z M 182.6875 2.472656 "/>
</g>
</svg>
